<svg width="227" height="67" viewBox="0 0 227 67" fill="none" xmlns="http://www.w3.org/2000/svg">
<g filter="url(#filter0_d_24_239)">
<path d="M95.5625 47.9609V20.6562H109.781V22.1406H97.125V33.625H106.109V35.1094H97.125V47.9609H95.5625ZM112.984 25.2266C112.984 24.7057 113.245 24.3672 113.766 24.2109C113.896 24.1849 114 24.1719 114.078 24.1719C114.599 24.1719 114.938 24.4193 115.094 24.9141C115.12 25.0182 115.133 25.1224 115.133 25.2266C115.133 25.7474 114.885 26.0859 114.391 26.2422C114.286 26.2682 114.182 26.2812 114.078 26.2812C113.531 26.2812 113.18 26.0339 113.023 25.5391C112.997 25.4089 112.984 25.3047 112.984 25.2266ZM113.297 48V27.8438H114.859V48H113.297ZM118.258 48V33.2734C118.258 32.0495 118.818 30.8646 119.938 29.7188C121.24 28.3906 122.841 27.7266 124.742 27.7266V29.2891C123.232 29.2891 121.943 29.875 120.875 31.0469C120.172 31.8281 119.82 32.6354 119.82 33.4688V48H118.258ZM126.383 29.2891V27.7266C128.727 27.7266 130.549 28.6771 131.852 30.5781C132.529 31.5417 132.867 32.4401 132.867 33.2734V48H131.305V33.4688C131.305 32.6094 130.862 31.724 129.977 30.8125C128.961 29.8229 127.763 29.3151 126.383 29.2891ZM135.523 42.4922V33.2734C135.523 31.737 136.24 30.3958 137.672 29.25C138.87 28.3125 140.159 27.8438 141.539 27.8438H146.188V29.3281H141.578C140.276 29.3281 139.13 29.888 138.141 31.0078C137.438 31.7891 137.086 32.5964 137.086 33.4297V42.4141C137.086 43.6901 137.763 44.7839 139.117 45.6953C139.977 46.2422 140.797 46.5156 141.578 46.5156H146.188V48H141.656C139.391 48 137.646 47.0625 136.422 45.1875C135.823 44.25 135.523 43.3516 135.523 42.4922ZM147.945 48V20.6953H149.508V48H147.945ZM152.633 48V20.6562H154.195V48H152.633ZM155.953 48.0391V46.5547H159.703C161.995 46.5547 163.857 46.0729 165.289 45.1094C167.06 43.9115 167.945 42.2057 167.945 39.9922C167.893 36.737 165.992 35.0703 162.242 34.9922H155.953V33.5078H162.242C162.477 33.5078 162.711 33.4948 162.945 33.4688C166.174 33.2865 167.789 31.6589 167.789 28.5859C167.789 27.4922 167.516 26.4505 166.969 25.4609C165.797 23.2474 163.805 22.1406 160.992 22.1406H155.953V20.6562H161.07C163.492 20.6562 165.458 21.3594 166.969 22.7656C168.557 24.3021 169.352 26.2422 169.352 28.5859C169.352 28.7161 169.352 28.8594 169.352 29.0156C169.221 31.2552 168.323 33 166.656 34.25C166.969 34.4844 167.229 34.7057 167.438 34.9141C168.818 36.1641 169.508 37.8568 169.508 39.9922C169.508 41.9453 168.922 43.638 167.75 45.0703C166.161 47.0495 163.987 48.0391 161.227 48.0391H155.953ZM172.555 42.4922V33.3125C172.555 32.1146 173.102 30.9557 174.195 29.8359C175.471 28.5078 177.06 27.8438 178.961 27.8438V29.3281C177.138 29.3281 175.745 30.1094 174.781 31.6719C174.339 32.401 174.117 33.1172 174.117 33.8203V41.9844C174.117 43.026 174.625 44.0547 175.641 45.0703C176.63 46.0599 177.737 46.5547 178.961 46.5547V48.0391C176.565 48.0391 174.729 47.0755 173.453 45.1484C172.854 44.2109 172.555 43.3255 172.555 42.4922ZM180.562 48.0391V46.5547C182.229 46.5547 183.544 45.7865 184.508 44.25C184.977 43.4948 185.211 42.7656 185.211 42.0625V33.8203C185.211 32.6745 184.716 31.6068 183.727 30.6172C182.815 29.7578 181.76 29.3281 180.562 29.3281V27.8438C182.88 27.8438 184.651 28.7943 185.875 30.6953C186.474 31.6068 186.773 32.4792 186.773 33.3125V42.4922C186.773 43.7161 186.24 44.901 185.172 46.0469C183.948 47.349 182.411 48.013 180.562 48.0391ZM189.742 42.4922V33.3125C189.742 32.1146 190.289 30.9557 191.383 29.8359C192.659 28.5078 194.247 27.8438 196.148 27.8438V29.3281C194.326 29.3281 192.932 30.1094 191.969 31.6719C191.526 32.401 191.305 33.1172 191.305 33.8203V41.9844C191.305 43.026 191.812 44.0547 192.828 45.0703C193.818 46.0599 194.924 46.5547 196.148 46.5547V48.0391C193.753 48.0391 191.917 47.0755 190.641 45.1484C190.042 44.2109 189.742 43.3255 189.742 42.4922ZM197.75 48.0391V46.5547C199.417 46.5547 200.732 45.7865 201.695 44.25C202.164 43.4948 202.398 42.7656 202.398 42.0625V33.8203C202.398 32.6745 201.904 31.6068 200.914 30.6172C200.003 29.7578 198.948 29.3281 197.75 29.3281V27.8438C200.068 27.8438 201.839 28.7943 203.062 30.6953C203.661 31.6068 203.961 32.4792 203.961 33.3125V42.4922C203.961 43.7161 203.427 44.901 202.359 46.0469C201.135 47.349 199.599 48.013 197.75 48.0391ZM207.008 48V20.7344H208.57V48H207.008ZM209.43 37.9609L220.211 27.9219H222.555L211.773 37.9609L222.555 48H220.211L209.43 37.9609Z" fill="white"/>
</g>
<path d="M14.7928 17.3645C14.984 16.8134 15.7617 16.8134 15.9528 17.3645L16.4957 18.9299C16.5801 19.1731 16.8065 19.3379 17.0632 19.3431L18.7165 19.3769C19.2986 19.3888 19.5389 20.1301 19.075 20.4825L17.7572 21.4838C17.5526 21.6393 17.4661 21.906 17.5405 22.1524L18.0193 23.7386C18.1879 24.2971 17.5587 24.7552 17.0809 24.4219L15.7235 23.4753C15.5127 23.3283 15.2329 23.3283 15.0221 23.4753L13.6647 24.4219C13.1869 24.7552 12.5577 24.2971 12.7263 23.7386L13.2051 22.1524C13.2795 21.906 13.193 21.6393 12.9884 21.4838L11.6706 20.4825C11.2067 20.1301 11.447 19.3888 12.0291 19.3769L13.6824 19.3431C13.9392 19.3379 14.1656 19.1731 14.2499 18.9299L14.7928 17.3645Z" fill="white"/>
<path d="M26.7665 17.3645C26.9577 16.8134 27.7353 16.8134 27.9265 17.3645L28.4694 18.9299C28.5537 19.1731 28.7801 19.3379 29.0369 19.3431L30.6902 19.3769C31.2723 19.3888 31.5126 20.1301 31.0487 20.4825L29.731 21.4838C29.5263 21.6393 29.4398 21.906 29.5142 22.1524L29.993 23.7386C30.1615 24.2971 29.5325 24.7552 29.0546 24.4219L27.6973 23.4753C27.4864 23.3283 27.2067 23.3283 26.9957 23.4753L25.6384 24.4219C25.1606 24.7552 24.5314 24.2971 24.7 23.7386L25.1788 22.1524C25.2532 21.906 25.1667 21.6393 24.9621 21.4838L23.6443 20.4825C23.1804 20.1301 23.4207 19.3888 24.0028 19.3769L25.6561 19.3431C25.9129 19.3379 26.1393 19.1731 26.2236 18.9299L26.7665 17.3645Z" fill="white"/>
<path d="M44.4201 11.6722C44.6112 11.1211 45.3889 11.1211 45.58 11.6722L47.4583 17.0879C47.5427 17.331 47.769 17.4958 48.0258 17.5011L53.7456 17.6179C54.3277 17.6298 54.5679 18.371 54.104 18.7235L49.5451 22.1874C49.3405 22.3429 49.254 22.6096 49.3283 22.856L50.985 28.3438C51.1536 28.9023 50.5245 29.3605 50.0466 29.0271L45.3508 25.7523C45.1399 25.6052 44.8602 25.6052 44.6492 25.7523L39.9534 29.0271C39.4755 29.3605 38.8465 28.9023 39.015 28.3438L40.6717 22.856C40.746 22.6096 40.6596 22.3429 40.4549 22.1874L35.896 18.7235C35.4321 18.371 35.6724 17.6298 36.2545 17.6179L41.9742 17.5011C42.231 17.4958 42.4573 17.331 42.5417 17.0879L44.4201 11.6722Z" fill="white"/>
<path d="M62.0735 17.3645C62.2647 16.8134 63.0423 16.8134 63.2335 17.3645L63.7764 18.9299C63.8607 19.1731 64.0871 19.3379 64.3439 19.3431L65.9972 19.3769C66.5793 19.3888 66.8196 20.1301 66.3557 20.4825L65.0379 21.4838C64.8333 21.6393 64.7467 21.906 64.8212 22.1524L65.3 23.7386C65.4685 24.2971 64.8395 24.7552 64.3616 24.4219L63.0043 23.4753C62.7933 23.3283 62.5136 23.3283 62.3027 23.4753L60.9454 24.4219C60.4675 24.7552 59.8384 24.2971 60.007 23.7386L60.4858 22.1524C60.5602 21.906 60.4737 21.6393 60.269 21.4838L58.9513 20.4825C58.4874 20.1301 58.7277 19.3888 59.3098 19.3769L60.9631 19.3431C61.2199 19.3379 61.4463 19.1731 61.5306 18.9299L62.0735 17.3645Z" fill="white"/>
<path d="M74.0472 17.3645C74.2383 16.8134 75.016 16.8134 75.2071 17.3645L75.7501 18.9299C75.8344 19.1731 76.0608 19.3379 76.3176 19.3431L77.9709 19.3769C78.553 19.3888 78.7933 20.1301 78.3294 20.4825L77.0116 21.4838C76.807 21.6393 76.7204 21.906 76.7949 22.1524L77.2737 23.7386C77.4422 24.2971 76.8132 24.7552 76.3353 24.4219L74.978 23.4753C74.767 23.3283 74.4873 23.3283 74.2764 23.4753L72.9191 24.4219C72.4412 24.7552 71.8121 24.2971 71.9807 23.7386L72.4595 22.1524C72.5339 21.906 72.4474 21.6393 72.2427 21.4838L70.925 20.4825C70.4611 20.1301 70.7014 19.3888 71.2835 19.3769L72.9367 19.3431C73.1936 19.3379 73.42 19.1731 73.5043 18.9299L74.0472 17.3645Z" fill="white"/>
<mask id="mask0_24_239" style="mask-type:luminance" maskUnits="userSpaceOnUse" x="14" y="27" width="62" height="29">
<path d="M14.682 27.5385H75.318V55.9225H14.682V27.5385Z" fill="white"/>
</mask>
<g mask="url(#mask0_24_239)">
<path fill-rule="evenodd" clip-rule="evenodd" d="M69.6672 41.2546L71.373 40.6646L73.1911 43.73C58.4383 45.4721 46.425 53.448 46.425 53.448C55.249 45.8055 70.716 42.6717 70.716 42.6717L69.6672 41.2546ZM20.3355 41.2546L18.6304 40.6646L16.8115 43.73C31.5651 45.4721 43.5776 53.448 43.5776 53.448C34.7538 45.8055 19.2873 42.6717 19.2873 42.6717L20.3355 41.2546ZM62.3216 27.5446C52.4607 27.8631 47.1237 34.24 47.1237 34.24C54.7031 28.5631 61.5756 28.9551 61.5756 28.9551L68.4865 38.9635C53.408 44.0192 46.2242 52.7732 46.2242 52.7732C52.2858 46.4183 71.0188 39.7346 71.0188 39.7346L62.3216 27.5446ZM27.681 27.5446C37.5421 27.8631 42.879 34.24 42.879 34.24C35.2995 28.5631 28.4271 28.9551 28.4271 28.9551L21.5169 38.9635C36.5953 44.0192 43.7784 52.7732 43.7784 52.7732C37.7168 46.4183 18.9839 39.7346 18.9839 39.7346L27.681 27.5446Z" fill="white"/>
<path fill-rule="evenodd" clip-rule="evenodd" d="M44.9116 55.8992C44.9039 55.8966 44.8961 55.8946 44.8876 55.892C34.1767 52.6794 14.6833 50.1838 14.6833 50.1838L16.1006 45.2468C32.3753 46.7061 44.642 54.6717 45.0014 54.9074C45.3607 54.6717 57.6273 46.7061 73.9014 45.2468L75.3194 50.1838C75.3194 50.1838 55.8261 52.6794 45.115 55.892C45.1065 55.8946 45.0989 55.8966 45.091 55.8992C45.0709 55.9123 45.0416 55.9181 45.0014 55.9155C44.961 55.9181 44.9318 55.9123 44.9116 55.8992ZM44.9929 54.9126C44.9929 54.9126 44.9969 54.9111 45.004 54.9086C45.3198 54.7981 45.0623 54.8883 45.004 54.9086L45.0091 54.9126L45.0014 54.91L44.9929 54.9126Z" fill="white"/>
</g>
<defs>
<filter id="filter0_d_24_239" x="90" y="7" width="138" height="68" filterUnits="userSpaceOnUse" color-interpolation-filters="sRGB">
<feFlood flood-opacity="0" result="BackgroundImageFix"/>
<feColorMatrix in="SourceAlpha" type="matrix" values="0 0 0 0 0 0 0 0 0 0 0 0 0 0 0 0 0 0 127 0" result="hardAlpha"/>
<feOffset dy="4"/>
<feGaussianBlur stdDeviation="2"/>
<feComposite in2="hardAlpha" operator="out"/>
<feColorMatrix type="matrix" values="0 0 0 0 0 0 0 0 0 0 0 0 0 0 0 0 0 0 0.15 0"/>
<feBlend mode="normal" in2="BackgroundImageFix" result="effect1_dropShadow_24_239"/>
<feBlend mode="normal" in="SourceGraphic" in2="effect1_dropShadow_24_239" result="shape"/>
</filter>
</defs>
</svg>
