<svg width="90" height="66" viewBox="0 0 90 66" fill="none" xmlns="http://www.w3.org/2000/svg">
<path d="M14.7928 17.3645C14.984 16.8134 15.7617 16.8134 15.9528 17.3645L16.4957 18.9299C16.5801 19.1731 16.8065 19.3379 17.0632 19.3431L18.7165 19.3769C19.2986 19.3888 19.5389 20.1301 19.075 20.4825L17.7572 21.4838C17.5526 21.6393 17.4661 21.906 17.5405 22.1524L18.0193 23.7386C18.1879 24.2971 17.5587 24.7552 17.0809 24.4219L15.7235 23.4753C15.5127 23.3283 15.2329 23.3283 15.0221 23.4753L13.6647 24.4219C13.1869 24.7552 12.5577 24.2971 12.7263 23.7386L13.2051 22.1524C13.2795 21.906 13.193 21.6393 12.9884 21.4838L11.6706 20.4825C11.2067 20.1301 11.447 19.3888 12.0291 19.3769L13.6824 19.3431C13.9392 19.3379 14.1656 19.1731 14.2499 18.9299L14.7928 17.3645Z" fill="#D9C6B0"/>
<path d="M26.7665 17.3645C26.9577 16.8134 27.7353 16.8134 27.9264 17.3645L28.4694 18.9299C28.5537 19.1731 28.7801 19.3379 29.0369 19.3431L30.6902 19.3769C31.2723 19.3888 31.5126 20.1301 31.0487 20.4825L29.7309 21.4838C29.5263 21.6393 29.4397 21.906 29.5142 22.1524L29.993 23.7386C30.1615 24.2971 29.5325 24.7552 29.0546 24.4219L27.6973 23.4753C27.4863 23.3283 27.2066 23.3283 26.9957 23.4753L25.6384 24.4219C25.1606 24.7552 24.5314 24.2971 24.7 23.7386L25.1788 22.1524C25.2532 21.906 25.1667 21.6393 24.9621 21.4838L23.6443 20.4825C23.1804 20.1301 23.4207 19.3888 24.0028 19.3769L25.6561 19.3431C25.9129 19.3379 26.1393 19.1731 26.2236 18.9299L26.7665 17.3645Z" fill="#D9C6B0"/>
<path d="M44.42 11.6722C44.6112 11.1211 45.3888 11.1211 45.58 11.6722L47.4583 17.0879C47.5427 17.331 47.769 17.4958 48.0258 17.5011L53.7456 17.6179C54.3277 17.6298 54.5679 18.371 54.104 18.7235L49.5451 22.1874C49.3405 22.3429 49.254 22.6096 49.3283 22.856L50.985 28.3438C51.1536 28.9023 50.5245 29.3605 50.0466 29.0271L45.3508 25.7523C45.1399 25.6052 44.8602 25.6052 44.6492 25.7523L39.9534 29.0271C39.4755 29.3605 38.8465 28.9023 39.015 28.3438L40.6717 22.856C40.746 22.6096 40.6595 22.3429 40.4549 22.1874L35.896 18.7235C35.4321 18.371 35.6724 17.6298 36.2545 17.6179L41.9742 17.5011C42.231 17.4958 42.4573 17.331 42.5417 17.0879L44.42 11.6722Z" fill="#995F3D"/>
<path d="M62.0735 17.3645C62.2647 16.8134 63.0423 16.8134 63.2335 17.3645L63.7764 18.9299C63.8607 19.1731 64.0871 19.3379 64.3439 19.3431L65.9972 19.3769C66.5793 19.3888 66.8196 20.1301 66.3557 20.4825L65.038 21.4838C64.8333 21.6393 64.7468 21.906 64.8212 22.1524L65.3 23.7386C65.4685 24.2971 64.8395 24.7552 64.3616 24.4219L63.0043 23.4753C62.7934 23.3283 62.5137 23.3283 62.3027 23.4753L60.9454 24.4219C60.4675 24.7552 59.8385 24.2971 60.007 23.7386L60.4858 22.1524C60.5603 21.906 60.4737 21.6393 60.2691 21.4838L58.9513 20.4825C58.4874 20.1301 58.7277 19.3888 59.3098 19.3769L60.9631 19.3431C61.2199 19.3379 61.4463 19.1731 61.5306 18.9299L62.0735 17.3645Z" fill="#D9C6B0"/>
<path d="M74.0472 17.3645C74.2384 16.8134 75.016 16.8134 75.2072 17.3645L75.7501 18.9299C75.8344 19.1731 76.0608 19.3379 76.3176 19.3431L77.9709 19.3769C78.553 19.3888 78.7933 20.1301 78.3294 20.4825L77.0116 21.4838C76.807 21.6393 76.7204 21.906 76.7949 22.1524L77.2737 23.7386C77.4422 24.2971 76.8132 24.7552 76.3353 24.4219L74.978 23.4753C74.767 23.3283 74.4873 23.3283 74.2764 23.4753L72.9191 24.4219C72.4412 24.7552 71.8122 24.2971 71.9807 23.7386L72.4595 22.1524C72.5339 21.906 72.4474 21.6393 72.2427 21.4838L70.925 20.4825C70.4611 20.1301 70.7014 19.3888 71.2835 19.3769L72.9368 19.3431C73.1936 19.3379 73.42 19.1731 73.5043 18.9299L74.0472 17.3645Z" fill="#D9C6B0"/>
<mask id="mask0_24_175" style="mask-type:luminance" maskUnits="userSpaceOnUse" x="14" y="27" width="62" height="29">
<path d="M14.682 27.5385H75.318V55.9225H14.682V27.5385Z" fill="white"/>
</mask>
<g mask="url(#mask0_24_175)">
<path fill-rule="evenodd" clip-rule="evenodd" d="M69.6672 41.2546L71.373 40.6646L73.1911 43.73C58.4383 45.4721 46.425 53.448 46.425 53.448C55.249 45.8055 70.7159 42.6717 70.7159 42.6717L69.6672 41.2546ZM20.3355 41.2546L18.6304 40.6646L16.8115 43.73C31.5651 45.4721 43.5776 53.448 43.5776 53.448C34.7537 45.8055 19.2873 42.6717 19.2873 42.6717L20.3355 41.2546ZM62.3216 27.5446C52.4607 27.8631 47.1236 34.24 47.1236 34.24C54.7031 28.5631 61.5756 28.9551 61.5756 28.9551L68.4865 38.9635C53.408 44.0192 46.2242 52.7732 46.2242 52.7732C52.2858 46.4183 71.0188 39.7346 71.0188 39.7346L62.3216 27.5446ZM27.681 27.5446C37.5421 27.8631 42.879 34.24 42.879 34.24C35.2995 28.5631 28.427 28.9551 28.427 28.9551L21.5169 38.9635C36.5952 44.0192 43.7784 52.7732 43.7784 52.7732C37.7168 46.4183 18.9839 39.7346 18.9839 39.7346L27.681 27.5446Z" fill="#995F3D"/>
<path fill-rule="evenodd" clip-rule="evenodd" d="M44.9116 55.8992C44.9039 55.8966 44.8961 55.8946 44.8876 55.892C34.1767 52.6794 14.6834 50.1838 14.6834 50.1838L16.1006 45.2468C32.3753 46.7061 44.642 54.6717 45.0014 54.9074C45.3608 54.6717 57.6273 46.7061 73.9014 45.2468L75.3194 50.1838C75.3194 50.1838 55.8261 52.6794 45.115 55.892C45.1065 55.8946 45.0989 55.8966 45.091 55.8992C45.0709 55.9123 45.0416 55.9181 45.0014 55.9155C44.961 55.9181 44.9319 55.9123 44.9116 55.8992ZM44.993 54.9126C44.993 54.9126 44.9969 54.9111 45.004 54.9086C45.3198 54.7981 45.0623 54.8883 45.004 54.9086L45.0091 54.9126L45.0014 54.91L44.993 54.9126Z" fill="#401D10"/>
</g>
</svg>
