<svg width="248" height="39" viewBox="0 0 248 39" fill="none" xmlns="http://www.w3.org/2000/svg">
<circle cx="19.5" cy="19.5" r="19.5" fill="#AE511C"/>
<circle cx="33.5" cy="19.5" r="17.5" fill="#FF7B2F"/>
<circle cx="43" cy="19.5" r="15" fill="#FDAD4C"/>
<path d="M90.6136 15.4091C90.5152 15.0076 90.3598 14.6553 90.1477 14.3523C89.9356 14.0417 89.6705 13.7803 89.3523 13.5682C89.0417 13.3485 88.678 13.1856 88.2614 13.0795C87.8523 12.9659 87.4015 12.9091 86.9091 12.9091C85.8485 12.9091 84.9432 13.1629 84.1932 13.6705C83.4508 14.178 82.8826 14.9091 82.4886 15.8636C82.1023 16.8182 81.9091 17.9697 81.9091 19.3182C81.9091 20.6818 82.0947 21.8485 82.4659 22.8182C82.8371 23.7879 83.3902 24.5303 84.125 25.0455C84.8598 25.5606 85.7727 25.8182 86.8636 25.8182C87.8258 25.8182 88.625 25.678 89.2614 25.3977C89.9053 25.1174 90.3864 24.7197 90.7045 24.2045C91.0227 23.6894 91.1818 23.0833 91.1818 22.3864L92.2727 22.5H86.9545V18H97.2727V21.2273C97.2727 23.3485 96.822 25.1629 95.9205 26.6705C95.0265 28.1705 93.7917 29.322 92.2159 30.125C90.6477 30.9205 88.8485 31.3182 86.8182 31.3182C84.553 31.3182 82.5644 30.8371 80.8523 29.875C79.1402 28.9129 77.803 27.5417 76.8409 25.7614C75.8864 23.9811 75.4091 21.8636 75.4091 19.4091C75.4091 17.4848 75.7008 15.7803 76.2841 14.2955C76.875 12.8106 77.6932 11.5568 78.7386 10.5341C79.7841 9.50379 80.9924 8.72727 82.3636 8.20454C83.7348 7.67424 85.2045 7.40909 86.7727 7.40909C88.1515 7.40909 89.4318 7.60606 90.6136 8C91.803 8.38636 92.8523 8.93939 93.7614 9.65909C94.678 10.3712 95.4167 11.2159 95.9773 12.1932C96.5379 13.1705 96.8788 14.2424 97 15.4091H90.6136ZM100.219 7.72727H108.082L113.491 20.9091H113.764L119.173 7.72727H127.037V31H120.855V17.5455H120.673L115.491 30.8182H111.764L106.582 17.4545H106.401V31H100.219V7.72727ZM145.361 31H136.406V7.72727H145.27C147.664 7.72727 149.732 8.19318 151.474 9.125C153.224 10.0492 154.573 11.3826 155.52 13.125C156.474 14.8598 156.952 16.9394 156.952 19.3636C156.952 21.7879 156.478 23.8712 155.531 25.6136C154.584 27.3485 153.243 28.6818 151.509 29.6136C149.774 30.5379 147.724 31 145.361 31ZM142.724 25.6364H145.134C146.285 25.6364 147.266 25.4508 148.077 25.0795C148.895 24.7083 149.516 24.0682 149.94 23.1591C150.372 22.25 150.588 20.9848 150.588 19.3636C150.588 17.7424 150.368 16.4773 149.929 15.5682C149.497 14.6591 148.861 14.0189 148.02 13.6477C147.187 13.2765 146.164 13.0909 144.952 13.0909H142.724V25.6364ZM159.966 31V13.5455H166.239V31H159.966ZM163.102 11.7273C162.254 11.7273 161.527 11.447 160.92 10.8864C160.314 10.3258 160.011 9.65151 160.011 8.86364C160.011 8.07576 160.314 7.40151 160.92 6.84091C161.527 6.2803 162.254 6 163.102 6C163.958 6 164.686 6.2803 165.284 6.84091C165.89 7.40151 166.193 8.07576 166.193 8.86364C166.193 9.65151 165.89 10.3258 165.284 10.8864C164.686 11.447 163.958 11.7273 163.102 11.7273ZM177.844 37.9091C176.094 37.9091 174.594 37.6591 173.344 37.1591C172.101 36.6667 171.135 35.9848 170.446 35.1136C169.764 34.25 169.382 33.2576 169.298 32.1364H175.344C175.404 32.5076 175.556 32.8068 175.798 33.0341C176.041 33.2614 176.351 33.4242 176.73 33.5227C177.116 33.6288 177.548 33.6818 178.026 33.6818C178.836 33.6818 179.507 33.4848 180.037 33.0909C180.575 32.697 180.844 31.9848 180.844 30.9545V28H180.662C180.435 28.5909 180.086 29.0947 179.616 29.5114C179.147 29.9205 178.582 30.2348 177.923 30.4545C177.264 30.6667 176.541 30.7727 175.753 30.7727C174.51 30.7727 173.366 30.4848 172.321 29.9091C171.283 29.3333 170.45 28.4205 169.821 27.1705C169.2 25.9205 168.889 24.2879 168.889 22.2727C168.889 20.1667 169.215 18.4545 169.866 17.1364C170.526 15.8182 171.374 14.8523 172.412 14.2386C173.457 13.625 174.556 13.3182 175.707 13.3182C176.571 13.3182 177.329 13.4697 177.98 13.7727C178.632 14.0682 179.177 14.4659 179.616 14.9659C180.056 15.4583 180.389 16 180.616 16.5909H180.753V13.5455H187.026V30.9545C187.026 32.4318 186.643 33.6856 185.878 34.7159C185.12 35.7538 184.052 36.5455 182.673 37.0909C181.295 37.6364 179.685 37.9091 177.844 37.9091ZM178.071 26.3182C178.647 26.3182 179.139 26.1591 179.548 25.8409C179.965 25.5152 180.283 25.053 180.503 24.4545C180.73 23.8485 180.844 23.1212 180.844 22.2727C180.844 21.4091 180.73 20.6705 180.503 20.0568C180.283 19.4356 179.965 18.9621 179.548 18.6364C179.139 18.303 178.647 18.1364 178.071 18.1364C177.495 18.1364 177.003 18.303 176.594 18.6364C176.192 18.9621 175.882 19.4356 175.662 20.0568C175.45 20.6705 175.344 21.4091 175.344 22.2727C175.344 23.1364 175.45 23.8712 175.662 24.4773C175.882 25.0758 176.192 25.5341 176.594 25.8523C177.003 26.1629 177.495 26.3182 178.071 26.3182ZM190.216 31V13.5455H196.489V31H190.216ZM193.352 11.7273C192.504 11.7273 191.777 11.447 191.17 10.8864C190.564 10.3258 190.261 9.65151 190.261 8.86364C190.261 8.07576 190.564 7.40151 191.17 6.84091C191.777 6.2803 192.504 6 193.352 6C194.208 6 194.936 6.2803 195.534 6.84091C196.14 7.40151 196.443 8.07576 196.443 8.86364C196.443 9.65151 196.14 10.3258 195.534 10.8864C194.936 11.447 194.208 11.7273 193.352 11.7273ZM210.094 13.5455V18.0909H198.594V13.5455H210.094ZM200.821 9.36364H207.094V25.3864C207.094 25.6288 207.135 25.8333 207.219 26C207.302 26.1591 207.431 26.2803 207.605 26.3636C207.779 26.4394 208.003 26.4773 208.276 26.4773C208.465 26.4773 208.685 26.4545 208.935 26.4091C209.192 26.3636 209.382 26.3258 209.503 26.2955L210.412 30.7045C210.132 30.7879 209.73 30.8902 209.207 31.0114C208.692 31.1326 208.079 31.2121 207.366 31.25C205.927 31.3258 204.719 31.178 203.741 30.8068C202.764 30.428 202.029 29.8333 201.537 29.0227C201.045 28.2121 200.806 27.197 200.821 25.9773V9.36364ZM217.517 31.2727C216.403 31.2727 215.419 31.0909 214.562 30.7273C213.714 30.3561 213.047 29.7955 212.562 29.0455C212.078 28.2955 211.835 27.3409 211.835 26.1818C211.835 25.2273 211.998 24.4129 212.324 23.7386C212.65 23.0568 213.104 22.5 213.688 22.0682C214.271 21.6364 214.949 21.3068 215.722 21.0795C216.502 20.8523 217.343 20.7045 218.244 20.6364C219.222 20.5606 220.006 20.4697 220.597 20.3636C221.195 20.25 221.627 20.0947 221.892 19.8977C222.157 19.6932 222.29 19.4242 222.29 19.0909V19.0455C222.29 18.5909 222.116 18.2424 221.767 18C221.419 17.7576 220.972 17.6364 220.426 17.6364C219.828 17.6364 219.339 17.7689 218.96 18.0341C218.589 18.2917 218.366 18.6894 218.29 19.2273H212.517C212.593 18.1667 212.93 17.1894 213.528 16.2955C214.134 15.3939 215.017 14.6742 216.176 14.1364C217.335 13.5909 218.782 13.3182 220.517 13.3182C221.767 13.3182 222.888 13.4659 223.881 13.7614C224.873 14.0492 225.718 14.4545 226.415 14.9773C227.112 15.4924 227.642 16.0985 228.006 16.7955C228.377 17.4848 228.562 18.2348 228.562 19.0455V31H222.699V28.5455H222.562C222.214 29.197 221.79 29.7235 221.29 30.125C220.797 30.5265 220.233 30.8182 219.597 31C218.968 31.1818 218.275 31.2727 217.517 31.2727ZM219.562 27.3182C220.04 27.3182 220.487 27.2197 220.903 27.0227C221.328 26.8258 221.672 26.5417 221.938 26.1705C222.203 25.7992 222.335 25.3485 222.335 24.8182V23.3636C222.169 23.4318 221.991 23.4962 221.801 23.5568C221.619 23.6174 221.422 23.6742 221.21 23.7273C221.006 23.7803 220.786 23.8295 220.551 23.875C220.324 23.9205 220.085 23.9621 219.835 24C219.35 24.0758 218.953 24.2008 218.642 24.375C218.339 24.5417 218.112 24.75 217.96 25C217.816 25.2424 217.744 25.5152 217.744 25.8182C217.744 26.303 217.915 26.6742 218.256 26.9318C218.597 27.1894 219.032 27.3182 219.562 27.3182ZM237.832 7.72727V31H231.56V7.72727H237.832Z" fill="#FDAD4C"/>
</svg>
